<?xml version="1.0" encoding="UTF-8" standalone="no"?>
<!-- Generator: Adobe Illustrator 16.0.4, SVG Export Plug-In . SVG Version: 6.00 Build 0)  -->

<svg
   xmlns:dc="http://purl.org/dc/elements/1.1/"
   xmlns:cc="http://creativecommons.org/ns#"
   xmlns:rdf="http://www.w3.org/1999/02/22-rdf-syntax-ns#"
   xmlns:svg="http://www.w3.org/2000/svg"
   xmlns="http://www.w3.org/2000/svg"
   xmlns:sodipodi="http://sodipodi.sourceforge.net/DTD/sodipodi-0.dtd"
   xmlns:inkscape="http://www.inkscape.org/namespaces/inkscape"
   version="1.1"
   id="Capa_1"
   x="0px"
   y="0px"
   width="23.198px"
   height="21.37px"
   viewBox="0 0 23.198 21.37"
   style="enable-background:new 0 0 23.198 21.37;"
   xml:space="preserve"
   inkscape:version="0.48.4 r9939"
   sodipodi:docname="circular10.svg"
   inkscape:export-filename="/home/pajlada/downloads/circular10.png"
   inkscape:export-xdpi="163.72"
   inkscape:export-ydpi="163.72"><metadata
     id="metadata3173"><rdf:RDF><cc:Work
         rdf:about=""><dc:format>image/svg+xml</dc:format><dc:type
           rdf:resource="http://purl.org/dc/dcmitype/StillImage" /><dc:title></dc:title></cc:Work></rdf:RDF></metadata><defs
     id="defs3171" /><sodipodi:namedview
     pagecolor="#ffffff"
     bordercolor="#666666"
     borderopacity="1"
     objecttolerance="10"
     gridtolerance="10"
     guidetolerance="10"
     inkscape:pageopacity="0"
     inkscape:pageshadow="2"
     inkscape:window-width="1279"
     inkscape:window-height="925"
     id="namedview3169"
     showgrid="false"
     inkscape:zoom="22.627417"
     inkscape:cx="2.4375282"
     inkscape:cy="7.088403"
     inkscape:window-x="0"
     inkscape:window-y="16"
     inkscape:window-maximized="0"
     inkscape:current-layer="Capa_1" /><g
     id="g3135"
     transform="matrix(-1,0,0,1,23.308,0)"
     inkscape:export-xdpi="163.72"
     inkscape:export-ydpi="163.72"><path
       style="fill:#231f20;fill-rule:evenodd"
       d="M 1.88025,11.71175 C 1.86625,11.48575 1.828,10.914 1.828,10.684 1.828,4.785 6.613,0 12.513,0 c 5.9,0 10.685,4.785 10.685,10.685 0,5.9 -4.785,10.686 -10.685,10.686 -3.688,0 -6.94,-1.869 -8.86,-4.712 l 2.533,-1.707 c 1.371,2.029 3.694,3.364 6.328,3.364 4.213,0 7.631,-3.417 7.631,-7.631 0,-4.213 -3.417,-7.631 -7.631,-7.631 -4.214,0 -7.631,3.418 -7.631,7.631 0,0.23 -0.00953,1.224625 0.03,1.285563 l -3.003,0 z M 6.7,11.37 4.9,11.969563 1.91,11.97 l -1.8,-0.6 0,0 3.295,4 z"
       id="path3137"
       inkscape:connector-curvature="0"
       sodipodi:nodetypes="cssssccsssscccccccccc" /></g><g
     id="g3139" /><g
     id="g3141" /><g
     id="g3143" /><g
     id="g3145" /><g
     id="g3147" /><g
     id="g3149" /><g
     id="g3151" /><g
     id="g3153" /><g
     id="g3155" /><g
     id="g3157" /><g
     id="g3159" /><g
     id="g3161" /><g
     id="g3163" /><g
     id="g3165" /><g
     id="g3167" /></svg>