<svg xmlns="http://www.w3.org/2000/svg" width="32" height="32"><g><rect fill="#DC4A38" width="32" height="32"/><g fill="#fff"><path d="M16.964 17.13l-.991-.771c-.301-.25-.715-.58-.715-1.187 0-.608.412-.993.771-1.353 1.154-.908 2.31-1.877 2.31-3.916 0-2.096-1.319-3.197-1.952-3.721h1.706l1.788-1.125h-5.421c-1.487 0-3.632.353-5.2 1.647-1.184 1.025-1.76 2.431-1.76 3.698 0 2.149 1.65 4.33 4.566 4.33.274 0 .576-.027.879-.057-.137.331-.273.606-.273 1.075 0 .854.439 1.378.826 1.873-1.238.085-3.553.222-5.256 1.271-1.624.965-2.117 2.371-2.117 3.362 0 2.041 1.924 3.943 5.914 3.943 4.73 0 7.236-2.619 7.236-5.211 0-1.901-1.101-2.84-2.311-3.858zm-3.605-3.171c-2.366 0-3.439-3.061-3.439-4.907 0-.719.137-1.461.605-2.04.44-.553 1.209-.91 1.928-.91 2.281 0 3.465 3.088 3.465 5.072 0 .496-.055 1.378-.688 2.014-.441.442-1.182.771-1.871.771zm.03 11.087c-2.943 0-4.843-1.407-4.843-3.364 0-1.959 1.761-2.621 2.366-2.841 1.154-.388 2.641-.44 2.889-.44.275 0 .412 0 .633.026 2.092 1.489 3 2.23 3 3.642 0 1.704-1.405 2.977-4.045 2.977z"/><polygon points="23.912,13.917 23.912,11.16 22.551,11.16 22.551,13.917 19.799,13.917 19.799,15.293 22.551,15.293 22.551,18.066 23.912,18.066 23.912,15.293 26.678,15.293 26.678,13.917"/></g></g></svg>