<svg xmlns="http://www.w3.org/2000/svg" width="32" height="32"><g><linearGradient id="a" gradientUnits="userSpaceOnUse" x1="16" y1="32" x2="16"><stop offset="0" stop-color="#EDEDED"/><stop offset="1" stop-color="#fff"/></linearGradient><rect fill="url(#a)" width="32" height="32"/><path fill="#2AA9E0" d="M28.312 8.363c-.907.401-1.881.674-2.901.795 1.043-.624 1.845-1.614 2.222-2.796-.978.581-2.058 1.001-3.21 1.226-.921-.981-2.233-1.595-3.687-1.595-2.79 0-5.052 2.263-5.052 5.053 0 .396.044.781.131 1.152-4.199-.213-7.923-2.224-10.414-5.279-.433.744-.684 1.612-.684 2.54 0 1.753.892 3.297 2.248 4.204-.828-.026-1.606-.254-2.289-.631v.062c0 2.449 1.742 4.49 4.054 4.955-.424.115-.871.176-1.331.176-.326 0-.641-.032-.951-.089.644 2.007 2.51 3.468 4.719 3.508-1.729 1.354-3.908 2.163-6.274 2.163-.409 0-.811-.024-1.205-.071 2.235 1.433 4.891 2.271 7.745 2.271 9.291 0 14.375-7.7 14.375-14.375l-.016-.653c.985-.712 1.842-1.601 2.52-2.616z"/></g></svg>